<svg id="Layer_1" data-name="Layer 1" xmlns="http://www.w3.org/2000/svg" viewBox="0 0 288.85 164.76"><defs><style>.cls-1{fill:#63a7b3;}.cls-2{fill:none;stroke:#63a7b3;stroke-miterlimit:10;stroke-width:2px;}.cls-3{fill:#f1eb58;}.cls-4{fill:#fff;}</style></defs><title>logo</title><path class="cls-1" d="M219.76,84.92l-5.44,1.18,2.37-10.64,5.44-1.17Zm-4.78.51,4.37-1L221.47,75l-4.37.94Z" transform="translate(-6.71 -25.01)"/><path class="cls-1" d="M233.31,82l-5.43,1.18,2.37-10.64,5.43-1.17Zm-4.78.51,4.37-1L235,72l-4.37.94Z" transform="translate(-6.71 -25.01)"/><path class="cls-1" d="M291.19,69.49l-9.1,2,2.38-10.63,4.63-1a.63.63,0,0,1,.74.48l1.82,8.46A.62.62,0,0,1,291.19,69.49Z" transform="translate(-6.71 -25.01)"/><path class="cls-1" d="M246.87,79.06l-5.44,1.18L243.8,69.6l5.44-1.17Zm-4.78.51,4.37-.95,2.12-9.52-4.37.94Z" transform="translate(-6.71 -25.01)"/><path class="cls-1" d="M260.42,76.14,255,77.31l2.37-10.64,5.43-1.17Zm-4.78.5L260,75.7l2.13-9.53-4.37.94Z" transform="translate(-6.71 -25.01)"/><path class="cls-1" d="M274,73.21l-5.44,1.17,2.37-10.64,5.44-1.17Zm-4.78.5,4.37-.94,2.12-9.53-4.37.94Z" transform="translate(-6.71 -25.01)"/><path class="cls-1" d="M206.2,87.85l-5.78,1.25a.21.21,0,0,1-.26-.17l-2-9a.45.45,0,0,1,.34-.53l10-2.16Z" transform="translate(-6.71 -25.01)"/><polygon class="cls-1" points="201.59 52.8 199.25 62.43 207.9 60.56 210.25 50.93 201.59 52.8"/><path class="cls-1" d="M215,86l-9.72,2.1,2.6-10.7,9.73-2.11Zm-8.39.8,7.58-1.64,2.08-8.56-7.57,1.63Z" transform="translate(-6.71 -25.01)"/><polygon class="cls-1" points="215.15 49.87 212.8 59.5 221.46 57.63 223.8 48 215.15 49.87"/><path class="cls-1" d="M228.57,83.06l-9.73,2.1,2.61-10.7,9.73-2.1Zm-8.39.8,7.57-1.64,2.09-8.56-7.58,1.63Z" transform="translate(-6.71 -25.01)"/><polygon class="cls-1" points="228.7 46.94 226.36 56.57 235.01 54.7 237.35 45.07 228.7 46.94"/><path class="cls-1" d="M242.12,80.12l-9.72,2.11,2.6-10.7,9.73-2.11Zm-8.39.81,7.58-1.64,2.08-8.56-7.57,1.63Z" transform="translate(-6.71 -25.01)"/><polygon class="cls-1" points="242.26 44.01 239.91 53.64 248.56 51.77 250.91 42.14 242.26 44.01"/><path class="cls-1" d="M255.68,77.2,246,79.3l2.61-10.7,9.72-2.11Zm-8.39.8,7.57-1.64L257,67.8l-7.58,1.63Z" transform="translate(-6.71 -25.01)"/><polygon class="cls-1" points="255.81 41.08 253.47 50.71 262.12 48.84 264.46 39.21 255.81 41.08"/><path class="cls-1" d="M269.23,74.27l-9.72,2.1,2.6-10.7,9.73-2.1Zm-8.39.8,7.58-1.64,2.08-8.56-7.57,1.64Z" transform="translate(-6.71 -25.01)"/><polygon class="cls-1" points="269.37 38.15 267.02 47.78 275.67 45.91 278.02 36.28 269.37 38.15"/><path class="cls-1" d="M282.79,71.34l-9.73,2.1,2.61-10.7,9.73-2.1Zm-8.39.8L282,70.5l2.09-8.56-7.58,1.64Z" transform="translate(-6.71 -25.01)"/><path class="cls-2" d="M201.12,88.78v43a1.68,1.68,0,0,0,1.86,1.41h48.43a.6.6,0,0,1,.34.11l11.94,8.45a.58.58,0,0,0,.92-.44l.5-7.57a.59.59,0,0,1,.59-.55h27a1.68,1.68,0,0,0,1.85-1.41v-43c0-.13-.14-.23-.31-.23H201.43C201.26,88.55,201.12,88.65,201.12,88.78Z" transform="translate(-6.71 -25.01)"/><path class="cls-3" d="M213.41,104.6l1.79,3.62a.43.43,0,0,0,.33.24l4,.58a.44.44,0,0,1,.24.74l-2.9,2.82a.41.41,0,0,0-.12.38l.68,4a.43.43,0,0,1-.63.46l-3.57-1.88a.43.43,0,0,0-.41,0l-3.57,1.88a.43.43,0,0,1-.63-.46l.68-4a.41.41,0,0,0-.12-.38l-2.9-2.82a.44.44,0,0,1,.24-.74l4-.58a.43.43,0,0,0,.33-.24l1.79-3.62A.43.43,0,0,1,213.41,104.6Z" transform="translate(-6.71 -25.01)"/><path class="cls-3" d="M230.82,104.6l1.79,3.62a.42.42,0,0,0,.32.24l4,.58a.43.43,0,0,1,.24.74l-2.89,2.82a.45.45,0,0,0-.13.38l.69,4a.43.43,0,0,1-.63.46l-3.58-1.88a.41.41,0,0,0-.4,0l-3.58,1.88A.43.43,0,0,1,226,117l.68-4a.42.42,0,0,0-.13-.38l-2.89-2.82a.43.43,0,0,1,.24-.74l4-.58a.45.45,0,0,0,.33-.24L230,104.6A.44.44,0,0,1,230.82,104.6Z" transform="translate(-6.71 -25.01)"/><path class="cls-3" d="M248.23,104.6l1.78,3.62a.45.45,0,0,0,.33.24l4,.58a.43.43,0,0,1,.24.74l-2.89,2.82a.42.42,0,0,0-.13.38l.68,4a.43.43,0,0,1-.62.46L248,115.54a.41.41,0,0,0-.4,0l-3.58,1.88a.43.43,0,0,1-.63-.46l.69-4a.45.45,0,0,0-.13-.38l-2.89-2.82a.43.43,0,0,1,.24-.74l4-.58a.42.42,0,0,0,.32-.24l1.79-3.62A.44.44,0,0,1,248.23,104.6Z" transform="translate(-6.71 -25.01)"/><path class="cls-3" d="M265.63,104.6l1.79,3.62a.43.43,0,0,0,.33.24l4,.58a.44.44,0,0,1,.24.74l-2.9,2.82a.41.41,0,0,0-.12.38l.68,4a.43.43,0,0,1-.63.46l-3.57-1.88a.43.43,0,0,0-.41,0l-3.57,1.88a.43.43,0,0,1-.63-.46l.68-4a.41.41,0,0,0-.12-.38l-2.9-2.82a.44.44,0,0,1,.24-.74l4-.58a.43.43,0,0,0,.33-.24l1.79-3.62A.43.43,0,0,1,265.63,104.6Z" transform="translate(-6.71 -25.01)"/><path class="cls-3" d="M283,104.6l1.79,3.62a.42.42,0,0,0,.32.24l4,.58a.43.43,0,0,1,.24.74l-2.89,2.82a.45.45,0,0,0-.13.38l.69,4a.43.43,0,0,1-.63.46l-3.58-1.88a.41.41,0,0,0-.4,0l-3.58,1.88a.43.43,0,0,1-.62-.46l.68-4a.42.42,0,0,0-.13-.38l-2.89-2.82a.43.43,0,0,1,.24-.74l4-.58a.45.45,0,0,0,.33-.24l1.78-3.62A.44.44,0,0,1,283,104.6Z" transform="translate(-6.71 -25.01)"/><path class="cls-4" d="M42.83,84v14H38.28c-.44-6.46-4.55-10.28-11.16-10.28-9.18,0-14.32,7.64-14.32,21.44,0,13.07,5.21,20.49,14.54,20.49,4.48,0,7.49-1.18,10.5-4.19V115.08h-6v-4.4H48.63v4.4H43.42v12c-4.11,4.78-9.4,7-16.15,7-13,0-20.56-9.4-20.56-25.55,0-15.64,7.63-25.48,19.82-25.48a15.4,15.4,0,0,1,11.9,4.7V84Z" transform="translate(-6.71 -25.01)"/><path class="cls-4" d="M92.1,108.55c0,15.57-7.78,25.55-20,25.55-12.41,0-20-9.91-20-25.84,0-7.27,2-14.1,5.58-18.58a18.27,18.27,0,0,1,14.46-6.61C84.32,83.07,92.1,93,92.1,108.55Zm-33.85-.22c0,13.51,5,21.22,13.88,21.22s13.81-7.71,13.81-21S80.87,87.62,72.06,87.62,58.25,95.33,58.25,108.33Z" transform="translate(-6.71 -25.01)"/><path class="cls-4" d="M137.92,108.55c0,15.57-7.78,25.55-20,25.55-12.41,0-20-9.91-20-25.84,0-7.27,2-14.1,5.58-18.58A18.27,18.27,0,0,1,118,83.07C130.14,83.07,137.92,93,137.92,108.55Zm-33.85-.22c0,13.51,5,21.22,13.88,21.22s13.81-7.71,13.81-21-5.07-20.93-13.88-20.93S104.07,95.33,104.07,108.33Z" transform="translate(-6.71 -25.01)"/><path class="cls-4" d="M158.05,84.66c8.88,0,12,.59,15.85,3,6.25,4,9.92,11.9,9.92,21.44,0,10.43-4.41,18.87-11.75,22.4-3.52,1.68-6.24,2.12-14,2.12H143v-4.4h6.1V89.07H143V84.66Zm.8,44.5c6.17,0,8.15-.37,11-2,5-2.86,7.93-9.54,7.93-18.06,0-9-3.23-15.79-8.74-18.43-2.57-1.25-4.7-1.54-10.21-1.54h-4v40Z" transform="translate(-6.71 -25.01)"/><path class="cls-4" d="M22.13,25c9.39,0,11.52.22,14.46,1.69A11.93,11.93,0,0,1,43.49,38c0,6.68-4,11.67-10.2,12.92l9.18,18.65H48V74H37.91L27.71,51.59H18.45v18h5.88V74H6.71v-4.4H12.8V29.41H6.71V25Zm2.35,22c5.58,0,7.19-.22,9.1-1.4,2.5-1.39,3.82-4,3.82-7.49,0-3.74-1.62-6.46-4.63-7.78-1.69-.66-3.45-.88-8.74-.88h-5.5V47Z" transform="translate(-6.71 -25.01)"/><path class="cls-4" d="M79,36.24V29.41H62.59V46.16h17v4.47h-17V69.5H79.47V61.58H84V74H50.76v-4.4h6.1V29.41h-6.1V25H83.44V36.24Z" transform="translate(-6.71 -25.01)"/><path class="cls-4" d="M116.56,36.24V29.41H100.18V46.16h17v4.47h-17V69.5h16.89V61.58h4.48V74H88.36v-4.4h6.09V29.41H88.36V25H121V36.24Z" transform="translate(-6.71 -25.01)"/><path class="cls-4" d="M155,69.5V61.58h4.55V74H126v-4.4h6.09V29.41H126V25h17.91v4.4h-6.09V69.5Z" transform="translate(-6.71 -25.01)"/><path class="cls-4" d="M22.12,139.87c9.39,0,11.52.21,14.45,1.68a11.93,11.93,0,0,1,6.91,11.3c0,6.68-4,11.67-10.2,12.92l9.17,18.64H48v4.4H37.89l-10.2-22.38H18.45v18h5.87v4.4H6.71v-4.4H12.8V144.27H6.71v-4.4Zm2.35,22c5.57,0,7.19-.22,9.1-1.39,2.49-1.4,3.81-4,3.81-7.49,0-3.74-1.61-6.46-4.62-7.78-1.69-.66-3.45-.88-8.74-.88h-5.5v17.54Z" transform="translate(-6.71 -25.01)"/><path class="cls-4" d="M78.94,151.1v-6.83H62.58V161h17v4.48h-17v18.86H79.46v-7.93h4.48v12.4H50.76v-4.4h6.1V144.27h-6.1v-4.4H83.42V151.1Z" transform="translate(-6.71 -25.01)"/><path class="cls-4" d="M104,139.87v4.4h-5.5l11.66,37.58,12.48-37.58h-5.35v-4.4H133.2v4.4h-5.72L112.21,189.4h-5.43L92.47,144.27H86.6v-4.4Z" transform="translate(-6.71 -25.01)"/><path class="cls-4" d="M153.71,139.87v4.4h-6.1v40.14h6.1v4.4H135.65v-4.4h6.09V144.27h-6.09v-4.4Z" transform="translate(-6.71 -25.01)"/><path class="cls-4" d="M186.23,151.1v-6.83H169.86V161h17v4.48h-17v18.86h16.88v-7.93h4.48v12.4H158v-4.4h6.1V144.27H158v-4.4h32.67V151.1Z" transform="translate(-6.71 -25.01)"/><path class="cls-4" d="M211.64,139.87v4.4H205.7l3.59,17.54c1.76,9.83,2,11.23,3.38,19.59,1.24-5.06,2.93-12.32,5.21-21.8l5.06-19.73h5.43l4.77,19.66c.15.67.59,2.57,1.18,5.44.21.95.81,3.89,1.17,5.5.44,2.05.88,3.89,1.18,5.5.36,1.77.73,3.6,1.17,5.43,2-9.76,2.79-13.72,4-19.67l3.81-17.46h-5.57v-4.4h16.21v4.4h-5.94l-10.2,44.84h-5.43L229.92,169l-4.78-21.79c-1.61,7.18-3.37,14.52-5.06,21.79l-5,20.11h-5.58L200,144.27h-6.16v-4.4Z" transform="translate(-6.71 -25.01)"/><path class="cls-4" d="M292.85,139.87v13.28H289c-.36-6-4.11-9.61-10-9.61-5.36,0-8.81,3-8.81,7.63,0,4,1.62,5.43,11.23,9.68,6.38,2.87,8.15,3.82,10.2,5.8a11.8,11.8,0,0,1,3.52,8.88c0,8.44-6,14.24-15,14.24-5.28,0-8.88-1.61-12.18-5.36v4.4h-4V174.07h4c.08,7,4.33,11.08,11.53,11.08,6.08,0,9.68-3.3,9.68-8.88,0-4.33-1.91-6.54-7.93-9.11-8-3.37-10.63-4.69-12.62-6.38a11.28,11.28,0,0,1-4.47-9.17c0-7.42,5.86-12.7,14.09-12.7a12.71,12.71,0,0,1,10.49,4.7v-3.74Z" transform="translate(-6.71 -25.01)"/></svg>